<svg xmlns="http://www.w3.org/2000/svg" viewBox="0 0 512 512" role="img" aria-label="Last Word">
  <defs>
    <linearGradient id="lw" x1="0" y1="0" x2="0" y2="1">
      <stop offset="0" stop-color="#b9f0b4" />
      <stop offset="1" stop-color="#7cdc77" />
    </linearGradient>
  </defs>

  <!-- liquid -->
  <path
    d="M182 190 Q256 142 330 190 Q312 236 256 252 Q200 236 182 190 Z"
    fill="url(#lw)"
    opacity="0.92"
  />

  <!-- lime coin -->
  <circle cx="356" cy="148" r="24" fill="#77d36a" opacity="0.9" />
  <circle cx="356" cy="148" r="16" fill="#ffffff" opacity="0.45" />

  <g fill="none" stroke="#2b1e1a" stroke-width="14" stroke-linecap="round" stroke-linejoin="round">
    <!-- coupe -->
    <path d="M160 182 Q256 116 352 182 Q330 252 256 270 Q182 252 160 182 Z" />
    <path d="M256 270 L256 356" />
    <path d="M190 382 C220 408 292 408 322 382" />

    <!-- lime -->
    <circle cx="356" cy="148" r="24" />
    <path d="M356 124 L356 172" stroke-width="10" />
    <path d="M332 148 L380 148" stroke-width="10" />
  </g>
</svg>

