<svg xmlns="http://www.w3.org/2000/svg" viewBox="0 0 512 512" role="img" aria-label="Moscow Mule">
  <defs>
    <linearGradient id="copper" x1="0" y1="0" x2="1" y2="1">
      <stop offset="0" stop-color="#f0c08b" />
      <stop offset="0.55" stop-color="#c47b4a" />
      <stop offset="1" stop-color="#8d4b2c" />
    </linearGradient>
  </defs>

  <!-- mug body -->
  <path
    d="M156 182 C156 154 178 132 206 132 H308 C336 132 358 154 358 182 V342 C358 370 336 392 308 392 H206 C178 392 156 370 156 342 Z"
    fill="url(#copper)"
    opacity="0.96"
  />

  <!-- lime wedge -->
  <path d="M322 108 C350 110 370 132 372 160 C342 162 322 140 322 108 Z" fill="#77d36a" opacity="0.9" />

  <g
    fill="none"
    stroke="#2b1e1a"
    stroke-width="14"
    stroke-linecap="round"
    stroke-linejoin="round"
  >
    <!-- rim -->
    <path d="M170 158 H342" />
    <!-- mug outline -->
    <path d="M156 182 C156 154 178 132 206 132 H308 C336 132 358 154 358 182 V342 C358 370 336 392 308 392 H206 C178 392 156 370 156 342 Z" />
    <!-- handle -->
    <path d="M358 214 H386 C412 214 432 234 432 260 V314 C432 340 412 360 386 360 H358" />

    <!-- straw -->
    <path d="M294 92 L270 170" />

    <!-- lime wheel detail -->
    <path d="M322 108 C350 110 370 132 372 160" />
    <path d="M336 114 L352 148" />
  </g>
</svg>

