<svg xmlns="http://www.w3.org/2000/svg" viewBox="0 0 512 512" role="img" aria-label="Pornstar Martini">
  <defs>
    <linearGradient id="pm" x1="0" y1="0" x2="0" y2="1">
      <stop offset="0" stop-color="#ffd26b" />
      <stop offset="1" stop-color="#f6a93a" />
    </linearGradient>
  </defs>

  <!-- liquid -->
  <path
    d="M182 190 Q256 144 330 190 Q312 236 256 252 Q200 236 182 190 Z"
    fill="url(#pm)"
    opacity="0.92"
  />

  <!-- passionfruit half -->
  <path d="M352 122 C380 126 402 148 406 176 C378 176 356 154 352 122 Z" fill="#7a3b86" opacity="0.95" />
  <circle cx="386" cy="168" r="10" fill="#ffd26b" opacity="0.9" />
  <circle cx="372" cy="156" r="8" fill="#ffd26b" opacity="0.9" />
  <circle cx="396" cy="154" r="7" fill="#ffd26b" opacity="0.9" />

  <g
    fill="none"
    stroke="#2b1e1a"
    stroke-width="14"
    stroke-linecap="round"
    stroke-linejoin="round"
  >
    <!-- coupe -->
    <path d="M160 182 Q256 120 352 182 Q330 252 256 270 Q182 252 160 182 Z" />
    <path d="M256 270 L256 356" />
    <path d="M190 382 C220 408 292 408 322 382" />

    <!-- passionfruit outline -->
    <path d="M352 122 C380 126 402 148 406 176" />
  </g>
</svg>

