<svg xmlns="http://www.w3.org/2000/svg" viewBox="0 0 512 512" role="img" aria-label="Tommy's Margarita">
  <defs>
    <linearGradient id="tommy" x1="0" y1="0" x2="0" y2="1">
      <stop offset="0" stop-color="#dcf7c8" />
      <stop offset="1" stop-color="#bfe6a4" />
    </linearGradient>
  </defs>

  <!-- liquid -->
  <path
    d="M194 214 H318 Q314 260 256 270 Q198 260 194 214 Z"
    fill="url(#tommy)"
    opacity="0.92"
  />

  <!-- lime wedge -->
  <path d="M342 120 C368 132 384 156 372 180 C346 168 330 144 342 120 Z" fill="#77d36a" opacity="0.9" />
  <path d="M350 132 C366 142 374 158 366 172" fill="none" stroke="#ffffff" stroke-width="10" opacity="0.5" stroke-linecap="round" />

  <g fill="none" stroke="#2b1e1a" stroke-width="14" stroke-linecap="round" stroke-linejoin="round">
    <!-- rocks glass -->
    <path d="M176 174 H336" />
    <path d="M186 174 L202 378 H310 L326 174" />
    <path d="M202 378 H310" />

    <!-- ice hint -->
    <path d="M216 238 L246 206" stroke-width="10" opacity="0.55" />
    <path d="M268 246 L302 214" stroke-width="10" opacity="0.55" />

    <!-- wedge outline -->
    <path d="M342 120 C368 132 384 156 372 180 C346 168 330 144 342 120 Z" />
  </g>
</svg>
