<svg xmlns="http://www.w3.org/2000/svg" viewBox="0 0 512 512" role="img" aria-label="Tommy's Margarita">
  <defs>
    <linearGradient id="tommy" x1="0" y1="0" x2="0" y2="1">
      <stop offset="0" stop-color="#dcf7c8" />
      <stop offset="1" stop-color="#bfe6a4" />
    </linearGradient>
  </defs>

  <!-- liquid -->
  <path
    d="M194 214 H318 Q314 260 256 270 Q198 260 194 214 Z"
    fill="url(#tommy)"
    opacity="0.92"
  />

  <!-- lime wedge -->
  <path d="M342 120 C368 132 384 156 372 180 C346 168 330 144 342 120 Z" fill="#77d36a" opacity="0.9" />
  <path d="M350 132 C366 142 374 158 366 172" fill="none" stroke="#ffffff" stroke-width="10" opacity="0.5" stroke-linecap="round" />

  <g fill="none" stroke="#2b1e1a" stroke-width="14" stroke-linecap="round" stroke-linejoin="round">
    <!-- old fashioned glass (short + wide) -->
    <path d="M176 210 H336" />
    <path d="M190 210 L206 360 H306 L322 210" />
    <path d="M206 360 H306" />
    <!-- thick base -->
    <path d="M206 360 L210 392 H302 L306 360" stroke-width="12" />
    <path d="M210 392 H302" stroke-width="12" />

    <!-- ice hint -->
    <path d="M216 264 L246 234" stroke-width="10" opacity="0.55" />
    <path d="M268 272 L302 240" stroke-width="10" opacity="0.55" />

    <!-- wedge outline -->
    <path d="M342 120 C368 132 384 156 372 180 C346 168 330 144 342 120 Z" />
  </g>
</svg>
