<svg xmlns="http://www.w3.org/2000/svg" viewBox="0 0 512 512" role="img" aria-label="Dirty Martini">
  <defs>
    <linearGradient id="dirty" x1="0" y1="0" x2="0" y2="1">
      <stop offset="0" stop-color="#e9f2d9" />
      <stop offset="1" stop-color="#cfe1b6" />
    </linearGradient>
  </defs>

  <!-- liquid -->
  <path
    d="M206 214 Q256 192 306 214 Q292 252 256 264 Q220 252 206 214 Z"
    fill="url(#dirty)"
    opacity="0.92"
  />

  <!-- olives -->
  <g opacity="0.95">
    <circle cx="332" cy="156" r="18" fill="#7aa84c" />
    <circle cx="360" cy="146" r="18" fill="#6b9a41" />
    <circle cx="346" cy="170" r="6" fill="#2b1e1a" opacity="0.6" />
    <circle cx="372" cy="160" r="6" fill="#2b1e1a" opacity="0.6" />
  </g>

  <g fill="none" stroke="#2b1e1a" stroke-width="14" stroke-linecap="round" stroke-linejoin="round">
    <!-- martini bowl -->
    <path d="M150 186 L256 270 L362 186" />
    <path d="M150 186 H362" />
    <path d="M168 190 Q256 140 344 190 Q320 260 256 278 Q192 260 168 190 Z" />

    <!-- stem + base -->
    <path d="M256 278 L256 356" />
    <path d="M190 382 C220 408 292 408 322 382" />

    <!-- olive skewer -->
    <path d="M300 188 L372 144" stroke-width="10" />
    <circle cx="332" cy="156" r="18" />
    <circle cx="360" cy="146" r="18" />
  </g>
</svg>

