<svg xmlns="http://www.w3.org/2000/svg" viewBox="0 0 512 512" role="img" aria-label="Mojito">
  <defs>
    <linearGradient id="mojito" x1="0" y1="0" x2="0" y2="1">
      <stop offset="0" stop-color="#bff3d8" />
      <stop offset="1" stop-color="#2f9e68" />
    </linearGradient>
  </defs>

  <!-- liquid -->
  <rect x="188" y="170" width="136" height="232" rx="28" fill="url(#mojito)" opacity="0.9" />

  <!-- ice -->
  <g fill="#ffffff" opacity="0.42">
    <rect x="210" y="210" width="60" height="52" rx="12" />
    <rect x="262" y="250" width="58" height="50" rx="12" />
    <rect x="224" y="294" width="68" height="58" rx="14" />
  </g>

  <g
    fill="none"
    stroke="#2b1e1a"
    stroke-width="14"
    stroke-linecap="round"
    stroke-linejoin="round"
  >
    <!-- glass -->
    <rect x="176" y="118" width="160" height="322" rx="42" />
    <path d="M192 150 H320" />

    <!-- straw -->
    <path d="M308 92 L284 206" />

    <!-- mint -->
    <path d="M194 132 C214 98 260 104 272 136 C244 154 210 154 194 132 Z" />
    <path d="M216 118 C232 96 262 100 270 122 C248 136 230 136 216 118 Z" />

    <!-- lime wheel -->
    <circle cx="336" cy="158" r="26" />
    <path d="M336 132 L336 184" />
    <path d="M310 158 L362 158" />
  </g>
</svg>

